PathFileType	4	(X/Y/Z)	Walk1.trc
DataRate	CameraRate	NumFrames	NumMarkers	Units	OrigDataRate	OrigDataStartFrame	OrigNumFrames
200.000000	200.000000	7	59	mm	200.000000	567	610
Frame#	Times		LFHD		RFHD		CLAV		STRN		LASI		RASI		RACR1		RUA1		RElbow		RElbowM		RFA1		RWRR		RWRU		RCAR		LACR1		LUA1		LElbow		LFA1		LWRR		LWRU		LCAR		RTH2		RTB1		RTB2		LTH1		LTH3		LTH2		LMFC		LTB1		LTB2		LTB4		LMT1		LToe		LLFC		LMT5		RTH3		LTB3		RTB4		RTB3		RMFC		LTH4		RTH4		RToe		RTH1		RMMAL		RLFC		RBHD		RMT1		RCAL		RBack		LMMAL		LLMAL		RPSI		C7		T10		LPSI		LCAL		LBHD		LElbowM
			X1	Y1	Z1	X2	Y2	Z2	X3	Y3	Z3	X4	Y4	Z4	X5	Y5	Z5	X6	Y6	Z6	X7	Y7	Z7	X8	Y8	Z8	X9	Y9	Z9	X10	Y10	Z10	X11	Y11	Z11	X12	Y12	Z12	X13	Y13	Z13	X14	Y14	Z14	X15	Y15	Z15	X16	Y16	Z16	X17	Y17	Z17	X18	Y18	Z18	X19	Y19	Z19	X20	Y20	Z20	X21	Y21	Z21	X22	Y22	Z22	X23	Y23	Z23	X24	Y24	Z24	X25	Y25	Z25	X26	Y26	Z26	X27	Y27	Z27	X28	Y28	Z28	X29	Y29	Z29	X30	Y30	Z30	X31	Y31	Z31	X32	Y32	Z32	X33	Y33	Z33	X34	Y34	Z34	X35	Y35	Z35	X36	Y36	Z36	X37	Y37	Z37	X38	Y38	Z38	X39	Y39	Z39	X40	Y40	Z40	X41	Y41	Z41	X42	Y42	Z42	X43	Y43	Z43	X44	Y44	Z44	X45	Y45	Z45	X46	Y46	Z46	X47	Y47	Z47	X48	Y48	Z48	X49	Y49	Z49	X50	Y50	Z50	X51	Y51	Z51	X52	Y52	Z52	X53	Y53	Z53	X54	Y54	Z54	X55	Y55	Z55	X56	Y56	Z56	X57	Y57	Z57	X58	Y58	Z58	X59	Y59	Z59

567	2.835	1479.5	1683	13.22	1483.1	1672.8	-85.318	1490.8	1417.7	-11.109	1561.6	1259.1	-5.1982	1438.7	994.83	-178.48	1448.1	1005.4	193.18	1372.8	1504.4	153.92	1350.7	1346.3	281.97	1359.9	1200.7	339.43	1302.6	1123.6	252.86	1392.4	1052	364.78	1416.4	930.33	303.49	1408.1	939.24	384.88	1446	856.5	357.68	1379.7	1474.3	-196.71	1353.9	1299.2	-283.49	1355.3	1135.1	-333.28	1394.7	1000.9	-343.92	1464	887	-285.74	1422	865.51	-343.34	1484.4	802.59	-321.71	1500.9	747.62	218.08	1524	404.72	155.71	1465	334.45	207.31	1366.8	763.69	-192.56	1373.4	595.18	-162.16	1426.8	684.95	-164.1	1378.7	505.51	0.0094163	1412.1	383.74	-92.335	1364.3	296.68	-124.91	1396	303.45	-71.48	1416.3	35.761	-45.141	1465.4	26.855	-88.508	1354.5	511.15	-156.34	1343.7	24.711	-118.51	1485.5	643.97	226.94	1372.2	221.19	-53.397	1485.8	327.56	149.97	1447.4	251.01	143.27	1504.2	530.39	68.91	1369.4	680.55	-177.12	1449.7	721.98	231.78	1504.8	54.491	164.03	1411.5	800.09	233.94	1364.7	136.99	87.436	1493.9	537.37	223.89	1338.9	1584.6	-95.446	1466.7	49.51	127.14	1262.7	126.86	119.64	1231.4	1384.2	97.543	1290.5	85.243	37.787	1258.2	78.166	-46.727	1190.2	1041.3	40.724	1299.9	1495.7	-20.722	1234	1182	-2.5747	1196.9	1053.6	-45.033	1209.3	53.115	14.039	1349.8	1605.6	53.854	1299.1	1074.3	-238.38
568	2.84	1485.9	1682.5	13.532	1489.5	1672.4	-85.02	1496.8	1417.2	-11.087	1567.5	1258.6	-5.3534	1444.1	994.71	-178.74	1455	1005	192.24	1379	1503.9	153.96	1356.3	1345.9	282.01	1364.8	1200.2	339.55	1307	1123.4	253.01	1396.2	1051.3	365.16	1419.5	929.42	304.13	1411.1	938.47	385.49	1448.5	855.5	358.49	1385.8	1474.1	-196.72	1360.8	1299	-283.88	1363.7	1135	-334.13	1404.4	1001.2	-344.78	1474.7	887.95	-286.58	1433.1	866.11	-344.3	1496.1	803.86	-322.61	1508.5	748.62	217.6	1536.8	406	155.18	1479.7	334.17	206.94	1370.9	763.31	-192.7	1376.7	594.79	-162.42	1430.6	684.28	-164.42	1381.9	505.06	-0.17922	1414.4	383.03	-92.42	1365.9	296.24	-124.94	1397.7	302.84	-71.526	1416.4	35.741	-45.234	1465.6	26.659	-88.671	1357.5	510.79	-156.47	1343.7	24.722	-118.49	1493.9	644.82	226.18	1373.4	220.72	-53.388	1500.8	327.68	149.69	1464.8	249.99	143.25	1513.5	531.25	68.041	1373.2	680.2	-177.38	1457.5	722.52	231.35	1528.1	55.255	164.82	1418.7	800.32	233.73	1385.7	133.37	87.689	1503.4	538.1	223	1345.1	1584.4	-95.301	1490.3	49.17	127.81	1283.9	120.24	119.64	1237.4	1383.9	97.376	1290.9	85.339	37.928	1258.5	78.431	-46.581	1196.2	1041.1	41.049	1306.1	1495.4	-20.742	1240	1181.8	-2.5721	1202.6	1053.5	-44.688	1209.6	53.58	14.229	1356.1	1605.2	54.029	1307.8	1073.9	-239.19
569	2.845	1492.3	1681.9	13.848	1495.9	1672	-84.719	1502.8	1416.7	-11.061	1573.4	1258	-5.5045	1449.5	994.54	-178.98	1461.8	1004.6	191.24	1385.2	1503.3	154.02	1362	1345.4	282.06	1369.7	1199.7	339.68	1311.4	1123.2	253.2	1400.1	1050.6	365.55	1422.7	928.47	304.77	1414.1	937.65	386.11	1451	854.44	359.3	1391.9	1473.8	-196.72	1367.8	1298.7	-284.24	1372.1	1134.9	-334.94	1414.2	1001.5	-345.61	1485.4	888.87	-287.39	1444.2	866.67	-345.23	1507.8	805.11	-323.48	1516	749.49	217.11	1549.4	407.26	154.67	1494.3	333.94	206.57	1375.1	762.89	-192.85	1380.2	594.37	-162.67	1434.5	683.59	-164.74	1385.1	504.58	-0.3834	1416.7	382.27	-92.508	1367.7	295.78	-124.97	1399.6	302.2	-71.572	1416.5	35.718	-45.32	1465.8	26.463	-88.83	1360.5	510.41	-156.61	1343.7	24.736	-118.46	1502.2	645.55	225.42	1374.7	220.24	-53.378	1515.9	327.85	149.43	1482.1	249.09	143.26	1522.6	531.98	67.153	1377	679.8	-177.65	1465.2	722.96	230.92	1551.3	56.25	165.68	1425.7	800.45	233.54	1406.8	129.95	87.93	1512.8	538.71	222.09	1351.4	1584.1	-95.147	1513.7	49.101	128.53	1305.3	113.84	119.59	1243.5	1383.6	97.263	1291.4	85.447	38.071	1258.9	78.705	-46.429	1202.1	1040.8	41.394	1312.3	1495.1	-20.733	1245.9	1181.4	-2.5178	1208.2	1053.3	-44.303	1209.9	54.06	14.434	1362.4	1604.7	54.216	1316.4	1073.5	-239.96
570	2.85	1498.7	1681.2	14.165	1502.2	1671.5	-84.416	1508.9	1416.1	-11.029	1579.2	1257.3	-5.6529	1454.8	994.33	-179.22	1468.7	1004.1	190.2	1391.4	1502.6	154.1	1367.7	1344.9	282.13	1374.6	1199.2	339.83	1315.8	1122.9	253.4	1403.9	1049.9	365.95	1425.8	927.47	305.4	1417	936.8	386.72	1453.5	853.34	360.08	1397.9	1473.4	-196.71	1374.7	1298.3	-284.57	1380.5	1134.7	-335.71	1423.9	1001.7	-346.4	1496.2	889.74	-288.16	1455.3	867.19	-346.12	1519.5	806.33	-324.31	1523.4	750.24	216.63	1561.9	408.5	154.18	1508.8	333.74	206.21	1379.2	762.44	-193.02	1383.7	593.93	-162.93	1438.3	682.87	-165.06	1388.5	504.07	-0.60248	1419.1	381.49	-92.6	1369.4	295.29	-125	1401.4	301.53	-71.621	1416.6	35.691	-45.401	1466	26.268	-88.987	1363.6	509.99	-156.76	1343.8	24.752	-118.41	1510.4	646.18	224.67	1376	219.74	-53.366	1530.8	328.08	149.19	1499.4	248.3	143.29	1531.6	532.57	66.251	1380.9	679.38	-177.91	1472.9	723.28	230.51	1574.3	57.485	166.61	1432.8	800.49	233.37	1427.9	126.76	88.155	1522	539.22	221.16	1357.7	1583.8	-94.982	1537.1	49.317	129.3	1326.8	107.68	119.49	1249.5	1383.2	97.204	1291.9	85.564	38.215	1259.3	78.988	-46.271	1208.1	1040.4	41.757	1318.5	1494.7	-20.694	1251.9	1181.1	-2.41	1213.8	1053	-43.878	1210.2	54.553	14.656	1368.7	1604.1	54.415	1325.1	1073.1	-240.71
571	2.855	1505.1	1680.5	14.484	1508.6	1670.9	-84.113	1514.9	1415.5	-10.993	1585.1	1256.5	-5.7999	1460.2	994.07	-179.45	1475.7	1003.4	189.12	1397.7	1501.9	154.18	1373.3	1344.3	282.2	1379.5	1198.6	340	1320.2	1122.6	253.63	1407.7	1049.1	366.35	1428.8	926.43	306.04	1420	935.92	387.32	1456	852.18	360.85	1404	1473	-196.68	1381.8	1297.9	-284.88	1389	1134.4	-336.44	1433.6	1001.9	-347.16	1506.9	890.58	-288.89	1466.3	867.68	-346.97	1531.2	807.52	-325.1	1530.7	750.86	216.14	1574.3	409.73	153.73	1523.1	333.59	205.85	1383.4	761.97	-193.22	1387.2	593.45	-163.19	1442.3	682.12	-165.39	1392	503.54	-0.83414	1421.6	380.67	-92.699	1371.3	294.79	-125.03	1403.3	300.84	-71.673	1416.8	35.663	-45.477	1466.2	26.075	-89.141	1366.8	509.54	-156.92	1343.8	24.773	-118.37	1518.5	646.68	223.94	1377.3	219.22	-53.355	1545.6	328.37	148.97	1516.6	247.64	143.35	1540.5	533.02	65.337	1384.8	678.93	-178.17	1480.4	723.5	230.13	1597.3	58.969	167.6	1439.7	800.42	233.23	1449	123.81	88.36	1531.1	539.6	220.22	1364	1583.4	-94.808	1560.4	49.828	130.11	1348.4	101.77	119.34	1255.6	1382.7	97.198	1292.4	85.689	38.364	1259.7	79.279	-46.105	1214.1	1040	42.14	1324.7	1494.2	-20.624	1257.8	1180.6	-2.2469	1219.5	1052.7	-43.415	1210.5	55.056	14.893	1375.1	1603.5	54.626	1333.7	1072.6	-241.43
572	2.86	1511.5	1679.8	14.803	1515.1	1670.2	-83.809	1521	1414.8	-10.953	1591	1255.7	-5.947	1465.5	993.76	-179.69	1482.6	1002.7	188.02	1403.9	1501.2	154.28	1379	1343.7	282.3	1384.3	1197.9	340.18	1324.6	1122.2	253.86	1411.5	1048.3	366.76	1431.9	925.36	306.67	1423	935	387.93	1458.4	850.99	361.6	1410.1	1472.5	-196.64	1388.8	1297.4	-285.16	1397.5	1134.1	-337.13	1443.4	1002.1	-347.87	1517.5	891.37	-289.58	1477.4	868.15	-347.78	1542.9	808.7	-325.85	1538	751.34	215.65	1586.5	410.94	153.31	1537.4	333.48	205.51	1387.7	761.47	-193.44	1390.8	592.94	-163.45	1446.2	681.35	-165.71	1395.5	502.98	-1.0749	1424	379.81	-92.803	1373.1	294.26	-125.06	1405.3	300.12	-71.729	1416.9	35.633	-45.55	1466.4	25.889	-89.294	1370	509.06	-157.09	1343.8	24.798	-118.31	1526.5	647.06	223.22	1378.7	218.69	-53.343	1560.4	328.71	148.78	1533.8	247.11	143.42	1549.2	533.33	64.417	1388.8	678.45	-178.44	1487.9	723.59	229.76	1620.1	60.707	168.64	1446.7	800.25	233.11	1470.2	121.12	88.542	1540	539.87	219.27	1370.4	1582.9	-94.625	1583.6	50.643	130.96	1370.1	96.132	119.14	1261.7	1382.2	97.242	1293	85.818	38.519	1260.1	79.577	-45.934	1220	1039.5	42.546	1330.9	1493.6	-20.524	1263.8	1180.1	-2.027	1225.1	1052.3	-42.913	1210.8	55.569	15.144	1381.4	1602.8	54.847	1342.4	1072.1	-242.11
573	2.865	1517.9	1679	15.121	1521.5	1669.5	-83.506	1527.1	1414	-10.909	1596.9	1254.8	-6.0956	1470.8	993.4	-179.94	1489.6	1001.9	186.92	1410.2	1500.4	154.39	1384.7	1343	282.4	1389.3	1197.3	340.37	1329.1	1121.8	254.11	1415.4	1047.4	367.17	1434.9	924.25	307.29	1426	934.06	388.53	1460.8	849.75	362.34	1416.2	1471.9	-196.58	1395.8	1296.8	-285.41	1406	1133.8	-337.77	1453.1	1002.2	-348.55	1528.2	892.14	-290.23	1488.4	868.58	-348.55	1554.5	809.85	-326.56	1545.2	751.68	215.16	1598.6	412.13	152.91	1551.5	333.42	205.16	1391.9	760.94	-193.7	1394.4	592.4	-163.71	1450.2	680.55	-166.04	1399.1	502.39	-1.3214	1426.6	378.93	-92.914	1375	293.71	-125.09	1407.3	299.38	-71.789	1417	35.603	-45.619	1466.5	25.71	-89.448	1373.3	508.55	-157.26	1343.8	24.828	-118.25	1534.4	647.31	222.53	1380.1	218.14	-53.331	1575	329.11	148.6	1550.9	246.72	143.5	1557.7	533.49	63.492	1392.8	677.95	-178.72	1495.3	723.58	229.42	1642.8	62.705	169.71	1453.5	799.98	233.01	1491.3	118.69	88.695	1548.7	540	218.33	1376.7	1582.4	-94.431	1606.6	51.769	131.81	1391.9	90.784	118.89	1267.8	1381.6	97.337	1293.5	85.95	38.68	1260.5	79.881	-45.756	1226	1038.9	42.976	1337.1	1493	-20.394	1269.8	1179.6	-1.7492	1230.7	1051.9	-42.371	1211.2	56.089	15.407	1387.8	1602	55.078	1351.2	1071.6	-242.77
